<mxfile host="app.diagrams.net" modified="2024-04-30T08:48:51.859Z" agent="Mozilla/5.0 (Windows NT 10.0; Win64; x64) AppleWebKit/537.36 (KHTML, like Gecko) Chrome/124.0.0.0 Safari/537.36" etag="jdZm05Gk2Q1gE6Jaj_fd" version="24.3.1" type="device">
  <diagram name="Page-1" id="7Z9n95kimiWt8wUi85Q_">
    <mxGraphModel dx="1434" dy="1872" grid="1" gridSize="10" guides="1" tooltips="1" connect="1" arrows="1" fold="1" page="1" pageScale="1" pageWidth="850" pageHeight="1100" math="0" shadow="0">
      <root>
        <mxCell id="0" />
        <mxCell id="1" parent="0" />
        <mxCell id="LLJzu3yM0G75FeSDuMVk-2" value="&lt;div&gt;&lt;img src=&quot;data:image/png;base64,iVBORw0KGgoAAAANSUhEUgAAAOcAAAK5CAYAAABE7zmOAAAAAXNSR0IArs4c6QAAIABJREFUeF7sXQecU1X2PimTZCaZPqCooCIgoCIKojRFiooL2Ht3d+3uqn91beu6rquu66q7K9h27b0hggUpIoiNIgiCFQsK0qZkJpmayX+/G+7wJvOSvJe8zLz3cu7v508gr9z7nfu9c+65557jiEajUeLWDoH1NRHx95+CEfpofSO1tBJ9VdlCP1a10Ma6Vqqqb2XEdCJQmu+kHgEn9Sp1U4HbQaN6ecUTdit20fCeHp1Py43LHUxOIpARRJz3bQM9tDREAa9DENLlIIq2Rincgu+XQ8yIHX/KjQli1CjjcfO6idxOB3ldDqqsb6XSAieN6uWhw/fw0Un75hv1Wks/J6fJCVI+srSOHvs0TAGPg+qaWilKju00tLRcLdd5SV7IwekkGtHLS+cf4M9prZqT5Lz3g1p6fEWYQk1RaoSKZDqaisySqMVeB7lcDjp3cAFdOaLQVH3sjM7kFDlByns+qKP8PAeFm6EjuZkdARC1yOsQJvB5B+QWSXOCnB+ub6KLZ1VRQ1OU6piUZuejav9A0tJ8B7mcDnpgUmlOmLu2J+ft7wXpiZVhCjexU9qSrFTpdIHHQWfvX0A3HlZklyGpjsO25ISzZ/IzW4WTp7HF1jLMucHhM+vPI8rPc9LMMyqoZ7HLlhjYkpwvra6nq96utqXAeFBKBKJU6HXSb4f4bekwsh0571lcSw8uDVF9M5uxuUBkSLkgz0EXDfXTVSPt5dG1FTkve6OKFqxrpJpGJmYuEFOOEdL2uR306wML6PpD7bMOtQ05Qcz53zZSLTt+comXbWMVWy4eB5012D4EtQU5734/KKJ8gqwxc5KYSg2KwAXsh149yvoa1PLkxB7mOa9W8hozp2m5Y/ByDXrxQdZ3ElmanCDmyS9s42nJCLRDAAQt9Dro0WPLLB2sYGly7j9tE1WG+fgWc1MdgbICJ628ZCfLwmNZch7zzFZavbmZmmJHL7kxAh0Q8LiIxvfx0UOTSy2JjiXJyetMS861Tu80zNvyfCc9OMWasbiWJCebs50+zy39Qquat5YjJ459Pbw0RHW8n2lpwnRm53GAe2I/H91zVElnvjbjd1mOnD3v3sipQjIWe249AOZtic9Jqy+zlnPIUuSE1pz6SR2fMsktbhkyWuQsmtI/31La01Lk3G/qJpH5jjMYGDJfc+ohscPaTlp1qXW0p2XIiWNgt75XQ9X1HNSeU6wycLD+PAf9ZVyxZbL7WYacRz25hT7fzKemDZyrOfmofbq76e2zu1li7JYhJxxB3BiBTBCQWf1ePKXcEmF9liAnTNob5lZTAyvOTOYm3yvOfRJdMixgicwJliDnxCe30Go2aZlcBiGwb3c3vWUB09YS5GST1qBZyY8Re+TFPgd9ftnOpkfD9OQUXtoFNVTdYA8vLaJVLj04QBP7+mjXIpdIr4GGxPPVDa2EuOGnVoTE/7llB4ESn4MePsb8x8ksQc7r51bbIvDgwB55dMcRxTSgW17SvdqGlig991mYbp4f7DA7zx5cQKfsW0CPLAvRa2vrszN74556VF8fXXiQn977rpHu+7CuU96ZzZcUuIkussC60/TkvHhmFc36siGbsuq0Zz9zYhmN3sNLkVaiZRua6IVVYXrr6wYRJzyyl4dO2KeAjurjEweFQVAQYerHO8hwxfAAXX5IQByTu2luDb2yJvvkPHZAPt0+vlg4UqZ9EqK7F9d2Gl7ZfNGkvX30gMmPkpmenEc+sYXWbLG+mxaT/LZxRVTkc4qPzSUzq1Tn3ln7F9B1hxZSkddJSzc00XHP7sj0cPXIQrpkmJ8aO5GcJwzMp9vGF5PXZS9yDuzmptnnmHu/0/TkHDR1k6jfaPWQPUksMDKVBpp+ejkN2cVD6ypb6JrZNbTk59j6k8lpjC6F96Is30mfmTyUz/TktIunVpqkqJb1zGdhumFOja6ZNv+8btS33N3hnudXhQWB0XoUuujKEQEavbuXuvud5EH1XyJqikRpU10rPb0yTNM+ab9mfO7kMlFlevGPTbQ5FBFmtS/PQcGGVmFuw2kV397/sZFOe7FSV//NdLEMRlh/dQ8zdatDX5icnSQeOIOmTi6l3Ypc1NgSpXe/a6RHl2v3ys46s4L6lbsFcdCQ0b41SvTK5/V007waOnxPL90+oVg8Hw1rVlmdG/fgrkiU6OXVYbp6O5lxnSQnDhTA5I60RsWaGO3n2gjtUugSJRPFM5uj4hkfrm+k86erm+WdBKchr2FyZgAjihFNeGKLKHJrh3bt6EK6YIifvNu3TzAqaKjvqyO0YmMzvfR5mFb+0pxwqMnM2sePL6Nxvb1U2xilB5fU0b8+2qEhT92vgK4eGaCdAi76qSZCF82sanuPJCdeCvP5D+/U0NfbWoRHeX1NCx3Zx2fLNaff46A553QzdREkU2tOu5ETBABR4NTZo9TdYR0tyTpvXSPduaiWNta2z16WiJwH7eqhu44spl7FLlr0QxOd+2pHk/OeiSV00j75grw3zK1p24aR5IQJe/P8GsK+srLZ1SHE5MxQ3dmRnBISmKFH9/MJxw9MUWk6yt9BTBD0VcV2SSYOoUT3SnLifZe9UU2f/NQ++IHJmeEkzuB21pwZgGfkrSAqTMgxe3qFJxENH6fLZlXR8o0xU1crOeEYgjbt381Nfcvc1KfcTT2LXMKchoZU7pFKcsKUHfvYlg5DYnIaKWV9zzI1OTEUu3hrtYoFxLp3YgmN6OURjpmHl9bRHQtjG//JyImwQJTAO25APpUXODuYzMI55CSxfmdyxqTBDiGtszLBdXYg57DdPPT3I4tp9xI3zV/XkNLTedK++XTr2GIC4ZRbJYnIiesePqaURu3uFaTE1sm2cCv9UtdK32xrEd7V3mVuunBoxwCGXNWcTM4MiYnb7RCEAPLMOL2C+lW46YfqCJ03vVJ4RBM1GTIX8Dro2c/CdN07sX3MROS8eFiArhoREGbrBz820ZVvVXdwJuHjAGcUm7UkTqZwEIIB5LRL+B68pVi/YWLM/rqB/u/t6oS5d6dNLiXEfoabo3T7e0F6ckU4KTmxv3nm/gXUEomqRh8heOHByaXi48DkjE1KDt8zgJx2CXwHQaZOKhH7hyAovKNvfNlAM76oF3uOWGvi9Mep++WLa9AWfd9IZ7y8Y1vk3AP8dP2hhZTnJHpwSYjuej+2Fk2mOfFMRCcN7B47CaOXnBP28oltmooCJ730eT1d9Va1AVLt+kdw4LsBMkCuWkxEaBGrt+E9PXTbuGLqW9Fxj1M5Noz04/VNYj9Saf5i+wUaGESBgwdRQIgQQqTRA1NKaOB2UsvfEL0nI4p+rI7QzgEnORxE//6oru3oV6o1Z+9SNz16XCntVeYW0UF45wc/WjtCCOb/HePNn4XP9N5aHDq+cEYlVdnosPXZg/10zAAf9Sp2EzbDodFASHyA4MDBOhP/qTXEzp5/oJ+KfTGPrIxzhea9bnShiBJCGJ50DH1fFaEXVodp6c9NbeGDCHKQgQqpyIk+nKKIMMJzE227WOXjiQ/W/HPNHR0ELE1PTuz1HfXUFgrahJxWmcB276fZt1EsQU50khN82Z0qnTu+sb299MTxZZ370jTeZnrNiTGJ1JjzasSpCG6MQCYIwKS93SJZ3y1BThFj++QWCjUyOTOZmHwviTW+2U+jSDlZgpzoLJdjYGoZgcCYPT301AnlRjwq68+wDDlh2v5xXg2F2LTN+qSw6wu4kFGWJAvTdsQjm7P0dH6s3RGwSmoSpRwsoznbHENcM8XuPMrK+FA891IL5Kq1LDmhPSc+tZVqGrYnucmKGPmhdkPAiloTMrCU5pTa8+Z3a6iOPbd241DWxmOlymKW1ZzoOLTnpGe2UmWYtWfWZrPNHlxW4KSVl1in3LzltlKU8wXxtue8WinSQ3JjBJIhUJ7vpAemlFqiWG78OCxn1soBXDiziuZ800DN7RPU8UxlBNoQyHMRTejjo4dMXhMlkcgsS042b5mFqRCwqjlrabNWdh4EPfLJLRRsjFq+lkqqica/a0dAemdfPKXckuasLcgpvbc3zqsRZyGtXuxI+/TjKxMhAGJWWHidaWlvrZpQ/rE4SA8sCYsaJNxyG4Eir4POP7CA/m9kkeWBsOyaMx75OxcG6ZHlIWqyfilPy0+qrhpAocdB4/by0b9/VdJVXTD0vbYhJ1ABQf+zPCzy3LCJa+g8MfXDYC+VeB10eG/7EBOA24qcGBASgj2wPSEYE9TUnDKkcyBmQZ6DLj7IT1eOKDTkmWZ5iO3IKQn6yLIQ1TYiiogpapbJlq1+WN0rmwgXW5ITg8U2y+RntlJ9cyuFE5e8zNZ84edmEQFoS38eUX6ekx6YbM3oHy3w2JackqBPrQjREyvDFG5iLaplQljlGpixNxxmfY9sMrxtTU45cGjRKc/GjppxuJ9V6Ne+n9CWqDmDOqbTJtlXWypHnRPklFr05c/D9NinYYpEo5wH1yIcBSmLvQ5yOR103gEFtnP65LzmVAIALfrR+ib668KgqBvSiNoF7DQyFVVj4XdR8rqdIlveuYNzi5RSGDmjOdVmH46ePfZpiBb/2EitrSjyw0TtKpZKQgY8TvHRRJTPvt09hFqludpympzKNSm06bvfN9DazS30SygiqkqjEFBzK7SrDKWO1TThzRn9dGmPW1TsTTodDvK4HFRZ30o4QXLyPvk0trfP0sHq+pFJfAeTUwUbmL5oPwUj9FNNRBQLqm9pFYVvN9a1UpVJszCctNtWeumnCiPnh2HPKi1wUo+AU1T37lvmIrfTQYf09Irno/oat44IMDltNCsWLFhAY8aMsdGIcnsoTE4byZ/JaSNh2jG21l7i0TcaJqc+vMx+NWtOs0tIR/+YnDrAssClTE4LCElrF5mcWpGyxnVMTmvISVMvmZyaYLLMRUxOy4gqdUeZnKkxstIVTE4rSStFX5mcNhIme2vtJUwmp73kyZrTRvJkctpImKw57SVMJqe95Mma00byZHLaSJisOe0lTCanveTJmtNG8mRy2kiYrDntJUwmp73kyZrTRvJkctpImKw57SVMJqe95Mma00byZHLaSJisOe0lTCanveTJmtNG8mRy2kiYrDntJUwmp73kyZrTRvJkctpImKw57SVMJqe95Mma00byZHLaSJisOe0lTCanveTJmtNG8mRy2kiYrDntJUwmp73kyZrTRvJkctpImKw57SVMJqe95Mma00byZHLaSJisOe0lTCanveTJmtNG8mRy2kiYrDntJUwmp73kyZrTRvJkctpImKw57SVMJqe95Mma00byZHLaSJisOe0lTCanveTJmtNG8mRy2kiYrDntJUwmp73kyZrTRvJkctpImKw57SVMJqe95Mma00byZHLaSJisOa0rzJqamg6d/+qrr6hfv34d/r24uNi6A83hnrPmtKjw6+rqaOnSpSl7P3ToUAoEAimv4wvMhwCT03wy0dyjL774gn755ZeE1++8887Uv39/zc/jC82FAJPTXPLQ1ZtU2vOggw4iv9+v65l8sXkQYHKaRxZp9SSR9mStmRacprqJyWkqcejvTCgUoiVLlnS4kbWmfizNdgeT02wSSaM/8dqTtWYaIJrwFianCYWit0vx2pO1pl4EzXk9k9OcctHdqy+//JI2btxIPXr0oL333lv3/XyD+RBgcppPJmn1SGpP1pppwWfKm7JGzvU1EXphVZi2hCP02S/Nphy83To1sexneqtyV7sNy5Tj2anQRUft5aORu3upZ7ErK33MCjlfWl1PV71dTUTR7Z12ZKXz/FBGoKsRKPQ66LdD/HTliELDu2I4OT9c30TnvFpJ9c2SmIb3mR/ICJgGAczygjwHPXF8GQ3v6TG0X4aTc7+pm6i6vtXQTvLDGAGzI1CS76RVl+5kaDcNJSe05vnTK6muibWmoVLih5kegYDHQY8eZ6z2NJScWGte+041tbDiNP1k4g4ai4DHSXTZIQFD156GkvPeD2rp/o/qqInJaazk+WmmR4DJaXoRcQdzFQEmZ65KnsdtegSYnKYXEXcwVxFgcuaq5HncpkfAsuQ8YWA+3Ta+mOBuTtQaWqK0NdxKc75poAeWhGhjbaTLBDKyl4fuO7qEdg646PlVYbpmdsdkWl3WOY0vVo4h2NhKdy6spadWhhPerZSRWcf89yOL6dT9CuiXughd8WY1Lf6xSSMa2b/M1uRUwvdzMEI3zw/SO980ZB9VlTfYjZwY4totzXTprGr6eluLKqZMzsymmi3IqfZV7oEg4r4+OnFgPu2zUx65HCQ05x/eqaF3v2vMDLU07rYjOSNRoulr6unKtxDz3LExOdOYKIpbbEtOJSz3Tiyh4wbmC4K+/2MjnfZiZWaopXG3HckJGJKZt0zONCZKrpET69IXTi6nQTvnUU1DK900L0ivra3PDDmdd9uNnF9tbaHdil0iQDuRecvk1DlJ4i7PCc2JMV89spAuGeYnl9NBT60I003z2jtkDtvDS1eNLKQBFW7Kz3OIg2mhpih9urGJHloSove+VzeFMQHPO9BP/cqT35eMnPh4XHpwgCb29dGuRS7yuWNOLoQsVta30owv6umexbXt4oulIwPrPfTtpH3yqdjnpFBzlOZ92yDWgmgw768bXUhje3vF73hyUyRK31dF6IXVYXp4aUjzDFKOARZIVX2UJu3to9YE5m0icsp/97qIpn0SorsX17brQ/x7pKUj78PFt7wbpBE9PTSut5eKfE5x/9ZQK726pp5uey8oTnNcd2gR7dPNTV63Q2D5TWULPfBJnbhGNqVD6K73a+ncwX4a2D2P3E6ixpYofbG1hR5bHqJXFPcoO6t33miVG96RM+ScsJeP7jqymCoKnPTBj010yovb2jC+ZlQhXTDUL0gBUsqjaSApJnN1QyvdtaijZ/K2cfD05Qvhy/twvU/lvkTk7FvupvsnldCAbnltxGmKEDkdJD4SeB6evej7Rjrj5R3muBQyDgTkOUl8dEA6j8tBz6yMfXwO39NLt08opt2KYgd34b3GJMU4Mfnw5+lr6+mqBGvGeNbGk+bmeUH677GltGepW9W8zRY5sTzZFm6lXYtd1ByJUvP2MeHfQSh8zECa7gEXNWw/ZihlEu93kDiGm6PiI4MPJXDCnyX++Ds+Yn9/v/1HJJ15o0VuEvecIeew3Tx0/69KhCaBthn72BaBwVn7F9B1hxZSkdcpvqx/W1RLb38d8+hO6Z9P14wK0B4l7g7OpPMP9NMfRhcKsw733TI/2KZd8dv/jQyIZ+LLe+GMKupR6FTdSgF5zhhUICbZi6vr6faFwTYNiQl2y9gi6lPmFh+I6+fU0KwvY32TQsafv61sEb/hBA/IDsJikk3dTvraxig9sqyOHlkaEr/hmj8dXkSjdvdSSyRKDy8LiY9Pqqam0ZQ4xJu32SInxgZnFLbI4IEH4Y7o46M7JhRTd79TEAtWz4NL6uhfH9WJYd10WBGdf2ABuV0OenFVmK7evpWlxBHEVsoAWyxXjQiIOQP8b5wbpNe/iGnddOdNKrkpt/tyhpwAdP553cTEVJLzlVPLCcTdVBcRe4/xnlx4fCH08gKnEMxl281FeR/2UUEMSWg5wUE6mJr4/U/zgxRqalUl54wzKmhgN7cg+EnPb+twNO7aUYV00UF+oT3//VEd3fdhbLJJIYPUaqbh9YfCGghQNBqlh5aGxEdH2TDBnzyhjA7a1SPIff70KlpXpb4lIu9LZG5Om1yqat5mk5yrNzd3wOvR40oJFhIsgidXhATusvUuddMTJ5SKD63SKShxBKGhcX/3RnvP8+n/+3DeeFghFXrV5a933qSSm1JGOUNOTMaZZ1YILSTJqZxsc75tEBNUrU0/vZyG7uIRWnDC41sEmaUWTnaf8lnpOoQSrc+kkKEVb5hb08HB9dzJZTSql5d+qonQRTOraKVKzqU/joE28QszXu0ZqcxauRbEB0/NvM0mOdW2z1JhIj/OauTER/Ta2TUEeca3N8+qoP12yiM4wY55divtv3Ne24dWz7xRflQTyS0nyakkhySncvLI9ZgaOT0uEms5GUXSze+i28cXE3K9aI180UJOfEAO3cNL+MpDm/Ypd1OvEjf58xzC7FVqyFSRLXIiQotgbGoNazSsxWDaqmlfreTEdWrm7aCd8tqiuJQ4ZeoQSuRI0oqJGjlhuUx+eqvqoX6pkaX8EeUlo9P0zBtEH6XqY06S89gB+W2EWrjduaIlBFAJVrxwEk0SNSIkI+clwwJ01uAC4amND0bE2grOoXgCpRKyJGeqdSR+T2Qa6yEnro03b9//odEy5FQudeLHHY+1kpxa8FWGBqaSW06SU5pwmOhyK0WSE97LR5eH6C8LdqxRkoGezv5dInIqAySg5eB4gFMA68DlG5upqSVKfzy8SLjV09GcSzc00XHP7vBMa5lMia5JtOaU18ebt0+vDNPZg/3COWV2zZmMnIk0p955ozRrtcTy5sSaE2biQ8eUUv8Kt3DQYOsAjh/l9sq8dY107qvaIoe0rDlP2jef/jSmSMzbxz8N04frGzs4hLBHCGdTiS/m1f3D7GpBSGWT+7NCMyn2BFN9geU6+adghC6dWdXhuemQNBU5481bvLs83ym2JPSQUykXpQmayhxOhUmyNefmUKsIfF/0Q/v9bHxYXjq1nPbtntfmc0h33jA5VWad1E7QmnPjHD+zzqwQC/xEXlepDWByfrGlhX4zo0potlRe3nsmlhAmU21jLCJpSyjSgZyXHxyg3w8PiH1StbUrJsZ/ji0jkELvmhNbMOce4KdolMQm+q0qVgHMUAQ+VNW30h2LgoR8TcmaFnLifmia8Xv52pnoauT0e9pva8h33zymSAR2YC+2s8gJq0UNJ7mWxgdGuQWT7rxJ9QHJCbMWpMI+ITSY3ODfUBsRWlN5LEjpyADp7vmgThAFDVEm2GgeuquHInHCwxrx+tFFFPA66JttLfTnd3fsc2L7A5MLk08GD6iZtck0J979++GFdEhPj4gJ1ktOpYkJp8ULq+rpzkWxPVTs2+GjgEMB+DAs+bmJzn4ldYZDreQ8sEce3T+ptF3WciU58TF8cHKpCP/DVsTdi3dg/rtDAnTRQQHhbEPrLHLiXfCgKvdGIeOrRhSKwJX4uZPuvMk5cqYy0eCrXFcZI5DaiZRbxxbRaYMK2iKEEFWCfGJYU4AYcMos+K6RLptV1c6bF38ftiSgnWX4HUiLLQoEByRacz5zYhmN3sMrtAzeAyLhz/hSo+GDUehxio/As5+F6bp3YmGHWoR8/MB8EboHMqIhggjRR9L7jH/7rqpF7AdqOamjlZx4LsIRrxgeaMMi3jK4dnQhXTDE3y66SmIn1934qHYWOWE5ARfsZ8ZHFSWKEEtn3miRm5zPtlhzqpEThERI1oZghGZ/00BTP65LmvtWxshi+wJRP1pjUNViaxFcP39dI925qLbtgHcicsJ0RUzvsf3zqcIfi32FiQVSYlP8yRVhYSZizaPceNcqZGix3w4NiI8DYlDlxwbhb/PWNdC9H9RpPoSuh5zx5q2a2Q4v9Zn7F4iPh4xl/XxLi4gjvmiYX+zTdhY54RC6/+M6unhYQOyFoz+IU16+oUkEf+ADq9b0zhutcsO7LEvOVNqSf2cErI4Ak9PqEuT+2xYBJqdtRcsDszoCTE6rS5D7b1sEmJy2FS0PzOoIMDmtLkHuv20RYHLaVrQ8MKsjwOS0ugS5/7ZFgMlpW9HywKyOAJPT6hLk/tsWASZnEtHK4GaUcpAJwYyYCfIYWJ4rcc5X5XuUGdtumluTME2jEX1L9xkyLUqyc5HpPjtb9yHj4in7FlCvkh3pSBEfvXZrLIQwUTrUbPUn/rlMzgRI41SHzF5n9IRTkjNVSQN0j8lpLB0Qz/zX8cUiuyJiaOWBA2S/lSk0cXrn4aV1Iva4qxqTUwV5EPPOCcV00G4eEYieTXLi9akqdjE5jaUHjoEhwbjH7aClPzeJfLQysB3pMK8eGaCdAq6EZ3yN7U3ipzE547DBKY5bxxWL0g0yn0+2yYkuJKvYxeQ0lg4yS8QP1RE6b3plhyppiQ5YG9uL1E9jcm7HCKbOb4f66dcH+kXZAhwCRuoKpETMFjnx6i+3tdA+3fMSljRgszb1JNZzBfL0IvM/8td+9JN6UatEOW71vMeIa5mc21GU+WmQvWD1pmaR7Ot3wwPiTGE2yfnIspBIFZKopEEycqY6G5gq/xDGhQPoOE+aqKYIPljnH+CnHkUucRYUZxw/Wt9Ef30v2E7jKB1CKF1w8TA/7V7ibrsH5yKT1ZyBOfnrIX7qXeoSaUhxHhfnYt//oYkeWVrXIQeSfB+yWmwOReioPj6xXgw2tIqs7WppWbQSRpmpoauq0qGvTE4FOZG64/lV9TTtk5gTIFseyHjSoFiRLO2gZt4mMmszJSdO/8MhAktBrabIB+ubaFI/nyhhgAwNqMkiiYO0lxfM2JEZQmKFVB95LhIZDrRmFEC+peMGJHbOIFHYDXPaZ+OX70P+Ixwij7RGRSoZtH9+VCcO16fb2KzViNy9H9TS/R/VUdN24DXeZshlnUVOVNlKVNIgm5oTz47Pm6OsKYLkYCjRIOvAIGPBv44uEXmN4M28eX5NW1IwiZXaM5EXCNsW+Aisr4mIdC8yy6BMV6LmnPnNEL9Id4IcPvEfLeX7kAMJRZFhCSC1yfqalqRZL5JNDqWXPr4+iiGTSsdDWHMmAaszyZmopEE2yYn6IM98FhZaSTalSYdUJsiB9OZXO0oUIKMf6rBAiypTdUqskIhMrTaLtBYcDofYorhjYa3IbI8ULHuVuUWpA5SNiC9hL7UYNLa8T2nVxH8kdMz9DpfC7/DwMaWiwFOisoaZPF/vvUxOk5AT3UhUsStbZi0mtlpQg8zvKmvDKCFKlDtWkvP76hY655WORZHU1nHIjHjr2GKRs0mtZireq3TOyEz9SnJtnOZvAAAgAElEQVQi19Jlb1TTJz+p5/jRSggQ86EppSLZGlq82a71OUZex+Q0ETnRFTXzNlvkTJR1XC35soQpFTnja58q4ZUFgaSDTWpTsaZtjopgALUm64kqHXNGWjXKfW28H2O48q1qzYnPjCSk8llMTpORU828xZ4rvJnxmi5Th1A2yJnMuxlPKGWklJYJng1yIj8wilIh62KiFKha+paNa5icJiOnmnn7+eYWOnGffMuTM5HmRGVqrEEf/zSkeY4boTlP2a9A5PWFwwlr5ZfX1IsygGZpTE4TkjPevP2+qkU4TfRqTlm8CQV09dRZycSsTVRKD5FXU5HlvchFcu0onUswW+MdU6kIkik5UZkanmLUqTFDHK3aeJmcJiWnWkmDRORU81gqK1frLeWQCTmRyBtVtFG1Tdlk/RPlhwJOoqmTSmn3EpfIPP/r1zp6a2VlcYwH8a8oG4GWCTkP39NLfzuiWCSzRlzzPxbXdehvqo9DZ/zO5MyAnGoFebUILVHkTvy98SUN4smJ7ORXjYgVQkIA920LgmL/EJMOpQIm9PGlVWclE3JiDPH1T2TtGBBszZZmuvj16rYS95K0Lid1qDkDYiI4AxnY40mfCTnlvY0tUXp4WYjuWlSrRWydfg2T08TkRNeUFbviyancl5NlHBDJI2q8OEnU+ITZVux1dJpZiyCD7n6nOPERXztGLdIHY/j7kSUEIiJaCQ5b3IeGejEYl9p6MF1yoojybeOKRECElsbhe0lQMnOEULY1J2BRmrdq+5LQknBqjO3tbZtwiC9FvdHX1taLIG/UyOysNScmM+rEyHhcFCdCfxb90ET3fFDbIchAij7RweevtrWI0nyvrGlfnjBdcur1EDM5TUpOLV9WXPPCyeXUze80NFuC1nfzdfZFgM3aDGUrI1gQRG5UefcMu8S32wQBJmeGgkTV7Ml7++i/y0Nir44bI2AUAkzODJCEM+OpE8uouj5Kl7/RvrBuBo/lWxkBgQCTkycCI2BSBJicJhUMd4sRYHLyHGAETIoAk9OkguFuMQJMTp4DjIBJEWBymlQw3C1GgMmZQ3NAGW6oNywN20YIxEcaz12LdtQWaWklQiIsnBh5akWoLXN6DsGataEyObMGrfkenC45Ed97xxHFIrOdzIKvNjoE3T/3WZhunh803+At2CMmpwWFlm6X0yXnMyeWicRXyAu7bEMTvbAqTG993SAOKeOZJ+xTIJI6F3pj+W3v+zCzvLHpjs9u9zE57SbRJONJh5zyiBUSN8/6soEumVml+gZkFrju0EIq8jpp6YYmjjM2YF4xOQ0A0SqPSIecWg+GAwMUCBqyi4fWVbbQNbNrCMmeuaWPAJMzfew033nYHl6R8RxFkaCBUHMEx4lxuv9LlUKtMv0kXnDLu0Ea0dPT7rxmqCkq8rT+88PaDjVEcA/eF1//BPldX11TT6fsl087B1yk1SF0xfAAXX5IgNxO/Xl+JECpzl4mSv0p70NfZ6xtELVUkBUBh7KRxeDzLS1058KgcEIhU/3xA/Opwh87RI0zpHO+baQ/zqtJO/u7ZgFn6UImZ5aAlY+9ZlShICayE8hT/sgm7nHF6o6goWDPX96rFWs5NElO/Iys67sWu8R6D+s55X1qdVWuHIHSBwGCd1W+Dwee8X54VtEwubWSU5mYC4R497tGkW9H1rPUAl+m5Pxxe3YFpGOJz66AxNcovzC2t49QPkJmgpBFcaevqRc5aK3YmJxZlJpyYiMrnaw5gleCPDccWkQn75svcgDN+baBzp8eW89JcuIa5FJF9nFUA0PeVmQ+uPvI4raSAcoSBUqzNVkeH7xDKzlxraxngn6igfTQTN9XR2jFxmZ66fMwrfylOSGSmZITD1aOB7ggQdekvfPJASskGnNUyRxKwP3uo0oIOYAT5ebNotgNezST0zAoOz7okmEBuuggvyDfvz+qo/vjKl9hks08s0KYasrSB0pyrt7cTCc9v62daTZ6dy/dd3SJyNWjLFFw+4RiOmNQgdAeyTLg6dGcclRIao1q0HuUujtsp0iyIjXKnYtqO2RKz5Sc0NjwACvxm7S3j+6YUCxyJKkVwZVpQYGFWsmJLIrdsEczOQ2DMr0HqU1cZa3QZz8L03XvdEx0rJYhTyZtRlGgY57d2mGtlY5DKH5USCt5dD+fcPwgBy2ScCkb1rYgKNa3smVKTjXtpxyL8gMl3ykdWY0RYnIqBOSIIjmpQa0rE3wZNIS2xyBPa/9ueTRopzzas9QlNGb3QKworbLUQKJ6JMr+xJNTa8HXZGkv0xkviHpkHx+N2dNLZfkxZ0x8mb9MyalWvFhJzudXhYV3WNmYnOrSZHIqcMH65/fDCwk1OeK1DL5gcPTAzMyUnFq1IpKRjejl0bXm1EJarIWRsgXPxpjUyvUlqhCeylvL5CzUIgJN1zA5t8OkzCwut07g2Pg5GCGkfJzzTQP97pBCMaEzJadWzTnn3G7Uv8KtiZzDdvMQiIPy8fPX7XBYJZoFsqQf1tJKbcaaUxNvOlzEa870cNN0FxJCT9jLJ/bksP1wu0oCMGlmZkpOdEiuORPVK9FKYDk4kGzG6RXUr8Kt6nSJBwHRRKjYFfA6SLlWTkXOaZNKaHL/joWakt3HZq2mKdjhItac2yGZfU4FDeyWl9Cdf9bgArp+dJGISTWCnNJb2xRRj29FaYMLh/opz+XQpDkxjHsmloitHWj+2V830P+9XZ1wU1/WFkVwxe3vBenJFbF9W0kyNceOsuRhfNJsJifRZYcE6MoRbNam9ylKclcizQmNhCrWiHiRThQjyKnMDo/AhoeXhuhfH9WJHv7uEGzrBMSHAE3rPifIM3VSiTiRAoLCG/vGlw0044t6sbeJtSZKKZy6X764Bm3R9410xsuxgkNot40rJnyIcD9MeZxawXPQ35vGFNHQXT1ie4bJ2X4ysVlrOCV3PBD1H/94WGFbmQTsuSFKR0b5wNz9uTYiSqsry6en462Vb1XWnAQZUDEazZfnEI6a1iiijLRrTtwLZxYI1rei4x6nEj686eP1TXTD3Jp2ZReUBMf10OyoyYmoJUQvrfqlmfYqd4tgAuWeJGtO1pxZpGfHOFdMYMTGfrqxiR5aEhLxtohfRZMb7ZmQE8+RHuKDe3rID1JGibaGIvTo8rAowguyaNWcEhxo+7MH++mYAT7qVewmvydWZEg6ur7Z1iLWmfhPrck+wcmEe9G2hlrptS/qCWGIt44tFv/G5NyBHmvOrFKTH84IpI8AkzN97PhORiCrCDA5swovP5wRSB8BJmf62PGdjEBWEWByZhVefjgjkD4CTM70seM7GYGsImB6cuLE/WkvbhPbAdwYgVxCAAci7jqihBCzbFQzNHwPx48Of2yLiE/lxgjkEgI4pP/ued2oZ7HLsGEbTs5zXq1sF3FiWE/5QYyAiRFAsAgORhjZDCUnOgbtecSTW6iuERmqkuUcN3IY/CxGoGsRePGUchE6aWQznJySoL96equIy0T4WyxwjBsjYC8EcGIo4HHSQ1NKDScmkMoKOSVBfwpG6IeqFvqhpsVeUjHpaIZGVtBS12CT9s5e3XI5HDRyd29WSCmRyho57SUKa4xmwYIFNGbMGGt0lnuZEgEmZ0qIrHMBk9M6stLSUyanFpQscg2T0yKC0thNJqdGoKxwGZPTClLS3kcmp3asTH8lk9P0ItLVQSanLrjMfTGT09zy0ds7JqdexEx8PZPTxMJJo2tMzjRAM8MtlZU7MubJ/nz33Xe05557duheWVmZGbrMfdCJAJNTJ2BmuTwcDtMnn3ySsjvDhg2jgoKClNfxBeZDgMlpPplo7tGXX35JGzduTHh9jx49aO+999b8PL7QXAgwOc0lD129CYVCtGTJkoT3sNbUBafpLmZymk4k+jr01Vdf0YYNGzrctMsuu1C/fv30PYyvNhUCTE5TiUN/ZxKtPVlr6sfSbHcwOc0mkTT6E7/25LVmGiCa8BYmpwmFordL8dqTtaZeBM15PZPTnHLR3Su59uS1pm7oTHsDk9O0otHXMak9WWvqw83MVxtOztNf3iYqUnHrfAQmlm2gtyp36fwX8xsNRwAlFg0nZ8+7E2+KGz4CfiAjYGMEDCXnS6vr6a8Lg7QtzJrTxnOGh9YJCIzfy2us5gQ5r51TTS2RTug9v4IRsC0CUfr9IQFjyXnB61X01lcNtoWMB8YIdAYChV4H/fnwYmPJOXjaJtoabuVU0p0hQX6HbRHIz3PQvHO7GUtOdgbZdr7wwDoZgfVX9zCOnCjDMO6JLVQvMrxzYwQYgXQRKC9w0opLdjKOnHAG/XlBDdU0MDnTFQrfxwgAgaP6eemRKWXGkfMfi2vpnx/WUpRXnDzDGIG0EXA5SXhqrxxRaBw5z3+tkuZ805h2p/hGRoARICorcNJNhxaJIryGBSHsP22TCD7gon88xRiB9BEo8Dho7jmxIryGkZM9tekLhO9kBJQIwFOLZgg5P1zfRBe+XkVV9Ry2x9OMEcgEgQHd3PTOObEK2YaQE57am+bXUJi3UTKRC9/LCNCkvX30wORS48h5+RtV9NpaDtvjucUIZIKA1+2gO8YXC2eQYZrz7Fcr6d117KnNRDB8LyMAcj51QllbtWxDzNpBUzdRZT17anl6MQKZIBDwOuids2OeWsM0J3tqMxEJ38sI7EBAemoNISecQXe8H6Qtdeyp5UnGCGSCwOG9vfTk8TuKTmVs1oKc18+tpsaWTLrF9zICjMCxA/Pp30eXtAGRMTkvnllFs75kTy1PLUYgEwQQGXTb2B2eWkPM2gMe2ERbQuwMykQwfC8j4Mtz0PxzdziDDCEnnEE4JMYxtTzBGIHMEFA6gwwjZ2Zd4rsZgdxGAMoNB6xXXrJTOyAyWnPCGfSX92qoqp4PWOf29OLRZ4rAEX289N9jd3hqM9ac935QS//8qI4ivIuSqWz4/hxGwEFR+v3wAP3fyCLjNOdvX6+kt7/isL0cnlc8dAMQKPY56E9j2ntqM9acnArTAMnwI3IegXyPg+ZtP2CtBCOjNSeH7eX8vGIADEIg3lObkeYUqTAf30L1zewMMkg+/JgcRaB/hZvmnBs7YG2I5oSn9k/v1lBtI5MzR+cUD9sgBCb289LDU9p7ajPSnHe/HxSeWg4/MEhC/JicRMDtIrprQknbAWtDNOd50ytp7rfsqc3JGcWDNgwBBB/cuD0VpmFm7aBpm6iSU2EaJiR+UG4i4Pc4aI6KpzYjs9YIT+0JA/PptvHFFPAkj8yNRIlCTa305dYW+ueHdfTe9+bW2FePLKRLhvnFbJv2SYjuXlybcub9/chiOnW/AhGn/P4PjXTBjCqqS5Iw7bmTy2hULy/9UhehK96spsU/NqV8R2dfIPv49bYWGvvYls5+vab3Ye49eUIZDd45T7OsND1Yx0Vqntq0ySlSYc6ooqqGzEKDlORsaIlSS4LH+dwOcjtjow02ttKdC2vpqZVhHcPv3EszISd62tgSpYeXheiuRYlJzeQ0RqbXji6kC4b4yenQ/iE15s2xpwzs5qbZ21NhGmLWGpUKU0nO51eF6ZrZNarj7lHoomtGFtKxA3yU53LQt5UtdP70KlpXZc4T3pmSEyBsrI3QH96poXe/U7cSmJyZU+TiYQG6/OAAoVhtcyTaJZpzcn8fTZsUS4VpCDkve6OKZhiQClMrOWWnHz++jMb19hK07D0f1NEDn8BbbL5mBDlTmbdMzszkfu2oQjrvQH/bkqoryIkznLeP6xi2J0eWVoTQUU9uoc83Z6619JITgF50kJ9cTgc9tSJMN81T17SZiS3zuzMhZ6g5ShuCEepb7k5q3jI505PT8J4egnwO2s1DrVGiT35qokE755HH2flmbXwqTEM0535TN4nSC5kesNZLzj+OKaLzD/RTNBqlB5eE6K7326/JDtvDS1eNLKQBFW5C6W5on1BTlD7d2EQPLQmpOpLgELj04ABN7OujXYtchPUtGta/SPc544t6umdxrapz5pJhATpr/wLqUeQil4NEtNTarS20fEMTnTO4QDxHr0MITqCpH9fRr4f4qaLAmdC8TURO6VhK5ChK9OGQz3v/x0ZhFeH9fcrcYq2PNfDnW1rozoVBgr/hpsOK6PiB+VThjzkCgg2tNOfbRvrjvJp2OCkdQg8vDdHFw/y0e4lbYIWPEHBKJhfI8pj++eKsI+6BTGDuQybASOkwG9nLQ/cdXULl+U56YkWYhu3qoX12yhP9+6kmIubK61/Uk+wTgmdeWB2m1ZuahVPS69Iuq/Q+Cx3vik+FaQg5jfDUoiN6yAlN8uDkUupX4aaahla6aV6QXltb3zaea0YV0gVD/YJcIKUMKwRJQbfqhlbhYFE6kvDM+yeV0IBueeKapkiUmiIknAPyPjxr0feNdMbLlW3vAqHvn1RKY/b0tk0amNrScYXnuJ0OirRqX8dIUmHC3TS3hvbpnifMLtRrVPPeZoucP9ZEqLvfSfiqA0NgIT9YX2xtofU1LTS2t4+iURLLCzlmeNSnr6mnK9+qbsNJSYQ8F4lnNmwP94RJp1cuHheRxxWTL2SC+jySoJKcFQUu4dkv8jnFu4DfprpWumxWFS3f2ExPHF9G6Mvd79eKv8s52BXkBFCJPLX4TbdZC2fQ7YuCtDWUmadWKznhDDqqr49O2y+f+neLfQnnftsgHEKyQXtdd2ghFXmd9E1lC/1tUS29/XUs6diU/vl0zagA7VHi7qCFbp9QTGcMKhDOgBcxroXBNmFDC98ytkhoDxD7+jk1bYnMpPZxuxy09Ocmum1BUAgaff3bEcV06B4x0upZx8STc/Y3DcLFf9CuHlXzNlvkBGab6iJ09+I6gpMOHyKMadLe+eRwkCDlsg07xnxgjzy6+6gSYYbHa2vZRzwTmurBJXX0LxFVRvS7QwLiY1rscxLitCV58L6HjymlUbt7qaklSi+vqRfbZ9CYSseg0+lo9zGQ5Nw54BK4P7eqnm6cWyP637PYTWu3NKsqvK4k57i9vPT4cR3D9mRH0yLndXOqhYbJtGnd55TvgVmz6IdG4cWEsGR75dRyGrabR0wqeHzjPZwg9x0TioV5BNPmslmxr/uMMyqEKxuEPun5bR1MV7nGxZf63x/V0X0f1glhv3RqOe3bPY++q2qhX79WRdjHk03um4FUmZDzlTX14qOEfquZt9kiJ0xYjPP+j3c421BcB/0o8Tnph+oIITpMOWa53IAmhdZH39FkH4HDQ0tD4qOpbPIj53A46OGldXTHwlo6e3AB3XBYEeW7HcJ8/d0bOzSxvHfa5FJR8Af1YK96q1rIW0nOr7a20DHPbk26Tyyf1XXkjNJxAwvoX4pUmPF80k3Oi2ZW0RsGpcJMts8pTRh0GERE4MGra+rFmkfZlEKZE6dRlddNP72chu7iIZhmEx7XtiGuJjg5UfHFf3FVmK5W2f7JxCEkzVo5wW8eU6Rq3maLnGprVSXGC+NMfGAsx9sYIVVyfl/dQue80nHra/+d88RSZbdiF2Gte9qLlXT3kcV08n4FYumitFaUsjz3AD9df2ihWA/Lj2aqPiZSJF1FTnzEb41LhZkxOY1MhZlszQkT5taxRTShj0+sez7d2ExXv13d7ouNwWgNZJBkT+QoAVgwR3uXuoU27VPupl4lbvLntd8Dw97YVSMCwmxN5OxJR+DxZq0kp1ITK4MTskVOtWge5cRX249ORc4PfmyiU17cpsqPN8+qoP12yhNyRRSRHBfWsNDEMKPjm9InIPuTqo9mI6daKsyMyWmUMyieWImCEP71qxLhscN6R80xotc0jien8LgOLhCe2njvMyYIJkKLYoNai1YcvbtXeA5LfY60vLVK0xA4qZm3FxzkVw3fy9Rbmw1ySq2oRpD4ED/lOjURoZT/blVyYgzJnEH4XZdZi4X7iEc2a8FM0zVavLVwNEzd7lEFWV5e3d6UlM+A1/DR5SH6y4KgpnfjonsnltBxA/PbPK5w/MCERgQSHDxwSPzx8KJ2e2BaNOexA/Lp9vHF5HNrd88n0pxyMPHmrdPhEOus+I+N1ciZSHMmMoUTCddKmjNRKsyMNCc8tbe+V0PVBqXC1EJOdBia7frRRSLMCgS6cW5QOHbQJuzlo7uOjDlN5q1rpHNf3bHlkYylSicH1qF/mF0tCKlsalpSed9Ln9cLh0R800Lg+HtSkTPevN0cahWl4vSSU7lXrDTLkwWpp5r4qcxaONwmP93RQQNP71SsOYtcJNey0yaV0OT++arbZcnkmaqPZjNrj+zrpf8ck9hTq1tzilSYH9ZSJJpp+EEMKq3kxLXSQ4c3L/m5ic5+pbLNGzfrzAqCc2FrOOZEkNsoUiDQvv89tlSYrl9saaHfzKiiEwfmi3SE2HtTM6lBhv8cWya0k9LrqvTWKrcA5LsS3ZdKnaciJ+7HttBfxxcJr6lsicgJx9LN82sIH1Rl3+T2TLwnOZvkDDdHhacWlo2ySWsAQSXyQ4HtFZAdazLU4Llk5o4tM6UVce4BBYTn/nd5iO79oK6dtzZZnHa8HNLxD6SSZarfnY4oXTG8kK4cUZj0Ul1m7W9mVNLsr407rqWHnPjKYuMf2iLeNY+ooT+MLqSCPIcwSxF3CwGhIVwLAQpDd/WI/LqPLQ/RrQuCwhUvtwfiNSfu+f3wQjqkp0d1vxIRRVdsJ/Y321roz+8GhTdZ6cTKdJ9TOoTipXfbuGI6c3CB6BdaPDml1sZHJ34PVjrY1PqWTXKin8q9U/xdGdu6ZkszXfx6tTjIoLQQsHUGD/yf5geFXPHbb4f66bdDYsHqyq0sK2nOknwH3XxY4phaKXNd5Nx/2iaxt2SM3tSnOdHhq0bEzkli4m2ojQiTUp5jxMQ7bVBBW4QQokMQJoG1KCYj1qsLvmsUm90yquSZE8to9B5eMR7pHcSfER2EhglR6HESwqye/SxM172zI5YXpjS0L07JyHvznLEIFngZ8e+tGUQIJSInJugLJ5eLeFA1cio38TEKTHAZyYNoGaynoXmLve2dVdkkJywMRB15VKKOfgpG6IY57fem8XHER6hvhVvIRo4BWycyWglW0p2LaumF7R9hK5ETFcXmJjhgrfwY6yKnkZ5avWYtrld+VbGojo8UgiZGyBu2QaBFZUje91UREUeJ+E5lw/MQv3ls/1icqJwIMn7zyRVhevS4UhFwsHpzc4dABRyOVsagImwPZjM2z2Gy6AkJ02LWyr4rzVu1rSFo8OtGF9LY3l4RgYOG+FesyRHyiA8LYlA7a80Jb+38dY10/gF+EYcMDzj6s+iHJrrng9oO22PoL8Zw5YgAjevto7J8p9jThMyx//n+D030yNK6dj4CK5ET40vlqcU1msmJzf9zXq3kVJipFhT8OyOQAoFEqTDjb9NMTjgWbn63huo4FSZPPkYgIwSO3ttHD01WP2Cdlln7+zer6dU1cLIYteLMaHx8MyNgSQRwIuZvCVJhpq05z51eSfM4FaYlJwR32jwIJEuFmTY5B03dJA4fs940j6C5J9ZDIFkqzLTJabSn1nqwco8ZAWMQ0OKp1eythaf2ghmVVN3AdVGMEQ8/JVcRGLOnh546oVzT8DV5a+GpvXFeDW+jaIKUL2IEEiMwZYCPpv4qtadWs+a8dFYVvf5FLO0HN0aAEUgPAUSe/TVJKsy01pwHPrCJthiQMyi9IfFdjIA9ENBywFo5Uk1mrVGpMO0BMdH887qJhFZaa4AoQ8u0lJPQcyCgqzDtitMcWsaKAxK/HRoQp1SQgU/GVSMmPFmaUy3PNuKaD37bXRze0NI0kZM9te2hzISceBIywV06q2PKFfkWJqeWqdvxmiP+l9IGByBwNBBN1t+R6Tvhzly5sZmuUkl3k94b9d+l1VOrac0JZ9BfFwbFaRRuMQQyJadajlcltkxO/TMNuZ8emFJCA7vliTScjyyro0eWhsQJpPh8VInOiep/q747xu/lpceSpMLUveYEOa+dU00tBqTC1DcU816dKTkxsmTmLZNTv+xlRj4c2XtyRUicAVU25YmmrimbGKXjBxbQP5OkwtRNTmTVfvMr9tQqgcuEnMipilSQONKWyLxlcuon55/HFon6pqh/Ep8gTT4tUX5d/W/TfwcOh//58NQHrJVPTrnmHPzAJpHdvavD9uT5PmS2Ewd3t6cCwBlKpNt/emWYpimqjilrZzywJCQOUCvrbsi6JqiDolaMF44FZEM4uKdHpMeEKQrTHiUHcE4yXYcQzjZW1UdFJgZMpPgSBhBOInJqObOo9uFQw0KeYRVaXFHrBDjfeFiRyAIhx70xGKFHPw0JM1E2pUPowaUh2r3YReP28rW75zWVmiby/vgzp6nO3srzrnDCQV4n7ZMvzqqi5sq8bxvEGj5VwwFu5KNCepNEBE71jHR/x/ybd243zc4gvCclOc3gDDp8Ty+hdAISQaHJhT74KWtuxGfmU07In2sjooAOyIB7xX3bCxap1cE8Zb8CcVgZScPgRFDW98AzkOEAmQ7S8daCnDfPC4qcRnuWulXN22ySU2KBlC3xtU5mf91A/cpjOXvxG8Yqa8bEm+HKrIe1ja1Uku8UaWCUz1SraQL5JZKndNwg88H0te2TpykPoyPjBCrN4cOMj/QzK1NXnOt6s1bbAWvNmhPpJcY/sYXCScqfp/sl0XOfrMsZX28Dz4Apc/XIAO0UcIlqUshIv/KX5nYJnzBJVv3STLe9F6uSBUHBDMIaAKk7lCUa4Fh46JhSwoHY+Pfhq4tUKSAtWrrkRGZzZd6jePM2W+REHRFgocwtpKx1AjJiwot6ONvrxvxmiF+MGWaZMv+sso9qz0RJBZTIwDOfVpRrVKY6jXfc4Lc/HV4k6qQgV7CyurckJ3BHqhUkcoMscQ+cPsryHGpzS1awRqqU+AwaeuZiutfiNMqKS3bSdXtSzQkh/XlBDdV0YUwtao4grUav/5lNSGuhlvrynv3XdWMAACAASURBVIklwsyBsG+YWyNScShNQOSpuXRmrMqUbCDozDMrRKEiZYmGy7Yn78KXWSYDUyKqJFUm5MQzZUbBePM2m+RUw0Kae0gfAv8C/AzKJktZKMer7CPW0fgoKuunKD9yykrkKKNwwdCAKOOoVj9FqeGU90ly6qk/I8egLHSVqmK4LvbouFhLKsz4xyUlJ9ZjSIXZ9SvO5Cio5U3VUjtDLakVcgYhF26ysg0zTq8QpQgzJadM2Rlv3maTnGrZ1yV+yoJNSsTVcNKSzFu5xpNpOuWzlFZOvHSl4wZ+AfmxleRUfoC1cAPEhNZEUjMtASBanqn3GqeT6IpDAilTYeoi569fq6R3vjEuFabeQaldD0cCtGn/bm7qWxZbH/UscomMfMoiQFqcJ2qTLj4DuVofkmWqU7te2Zd4cqiZt4N2yhMFXaFFlDlYtYwpmUMIZq2eWidyLMnIiTIZ2LaQWfCU41dLri37JzPqqeElfQnKMhipMtmrPQfvv/zgWBpNEPMfi+s65M41Yk6meobWVJi6yGl0KsxUg0j0u8ySd9yAWJXjeM8xBI21I6pYSy+clomsNum0bJNIMzpTzSnHG2/eoiaMVciJMSTyfKqF+El8tcwFpQmrl5zQ2qfuly8+2vFpNLW828hrtKbC1EVOM3hq4/OwwmGBLY1f6loJCZ0/XN9IvcvcdOFQPylL0KVLTi2aE/luUZHMKHLGm7fYFjp7sN8SmjMZOZNpzqUbmui4Z9Urj6kRQys546uOI/E0NHt8zVYjyaflWXrC9uTzEq454Qm76PUqkZqkK5sygzlKyaGsebxnTi3na7rklGtO1CK54s1qUaw3vmkhsPKeZGatvE5p3sJpg7yy2MbQY9bCCfPECaWiirfyw5EKi0S1TrSYtcjN++CSEN31fvvCuLhXVg6HRSPXjtK5pOaYSjbPtJATxHxoSqlIFI7W1XG0cjwDurnpnXO66aZRQnLCU/vH+TXCVOzKBgGfuX9BuzJ8yv5A66AAKxw0Rqw5pbcWJeWVWwDyncqiSkZpTvlsfBjG7+VrZ7YnIqeaYyeRJzmb5AQh4mvXYDxKa0BZafqWsUWEUDvU3VTzhuNemPkT+/qoqr6V7lgUFFs7Wsgpq8bB65zoQ94VcxkBJw9oSIWp2az93ZvVInqlq1syzYm6lahZMrB7npjQRpBTWe4AG+ovrKqnOxcFxbOVe6rAxWhyKuvBSNzjHThSa8fvwSbrW7bJiQCQOd800M3ba5pgHLeOKxYlI1BGEZnlkdk9nrTx+MLZh+JSKHOBtaKS9KnIefqgArrxsEIq8jpTnvrpzDmNos13akyFqZmc50yvpPkmSIWpPG2Azksvn/To4d9+rI7QzgGnKLCrVoY8UdWpRF5XRLAgSAFbHGjKaBnx9/9VzYLJaTQ58WxZJElGMMX3XblnFx+9hMrXKBsxdBdPp5m1kMO2+lYRvQV/QHPrjvo0apE+GOPxA/NFBBbIiIb7miKoMxOrNYMWv1ZMRU4ZqKKFeMqPuJbrM7mmyOugW3TG1Mr3JTRrzZQKU8ZhjuvtFQdo4+MwEfEi6zzKGp2ptAUASLYlEv9OXA8za8baeupXkSeCHLJBTrxHad6qfVhkjZbepS4xmUEC1MD877IQDdklT2j4zlpzor+3vxcUcbUyHhf9WVfZQk9/Fhamq1pLdih63roGUdZP6VtIRU49XuDOJKff66A5Z+uLqU1JTjN4ajP5YvG9jIBZEEjHU4u+q2pOEbb3bg3VcF0Us8iX+2FRBA7v7aUnj09ewTrR0BKS8/q51dTYYlFEuNuMgEkQOPZ/gTP//lVJWr1RJecls6poJqfCTAtQvokRkAggMui2sfoOWCvRUyXnAdsPWDPMjAAjkD4CelNhxr9JlZz7Tt1E1Vy0KH2p8J2MwHYE0nUGJXQIsaeW5xYjkBkC2IPGlp+h5ISn9raFQarkVJiZSYfvznkE9KbCTGnWcirMnJ9TDIAhCERFKOLVI4vSflqHNecFr1fSW1+Z64B12qPjGxmBLkKgyOegW8ak76lVXXMOnrZJHE7t6lSYXYQpv5YRMASBdFJhpjRr2RlkiGz4IYxARs6gDpoTqTDHPb6Fi+TyxGIEMkRg7wo3zT1X/wFr5WvbrTnhDLplQQ0FuzAVZoaY8O2MgCkQmNjPSw9PSS+mVg6gHTn/sThI931Yt32HxhRj5E4wApZDAMnmfp9GKsyka87zX6ukOSZLhWk5yXCHcx6BsgIn3XRoEZ20b35GWLTTnGZJhZnRiPhmRqCLEUg3FWZSzcme2i6WKr/eNghkErbXYc2JVJiokYFUHNwYAUYgfQQGdnPT7DRSYSbUnPDU3jS/pssriqUPCd/JCJgDgcn9fTRtUmnGnWlbc17+RhW9tpYrWGeMKD8gpxFASs87xmcWttfBrD371Up6dx3H1Ob0zOLBZ4wAyPnUCWU0vKcn42e1ac79pm4S602Oqc0YU35ADiMQ8DronTRTYSZcc7KnNodnFA/dUASM8NSiQ0JzwhmEmhRbQuypNVRK/LCcQ2Bsby89kWYqTFXNCXJeN7eamjgVZs5NJh6wsQgcOzCf/n10eqkwVcl58cwqmvUle2qNFRM/LdcQ8Hsc9JcMUmGqkhOpMGHSsjMo16YTj9dIBDJNhalKTjiDZLYwIzvLz2IEcg0Bo5xBbQ4h9tTm2hTi8RqNAJRbeYGTVl6yk2GPdry4Khz9y3s1VFXftRWsDRsRP4gR6CIEjujjpf8em9kBa2XXHfcsDkZxwLqVudlFIuXX2gEBB0VFlfWrMkiF2WHN+ZvXtkXf/prD9uwwQXgMXYdAsc9Bf8owFWYHcu4/9Zcop8LsOqHym+2BgFEHrNuZtbv9fQMbtPaYH3RMj200Y2O5TUZjvWEY6alt89ZaDwbusRoCCxYsoDFjxjA4NkFAtQSgTcaWc8NgctpL5ExOG8mTyWkjYcpTKfYaUu6OhslpL9mz5rSRPJmcNhIma057CZPJaS95sua0kTyZnDYSJmtOewmTyWkvebLmtJE8mZw2EiZrTnsJk8lpL3my5rSRPJmcNhIma057CZPJaS95sua0kTyZnDYSJmtOewmTyWkvebLmtJE8mZw2EiZrTnsJk8lpL3my5rSRPJmcNhIma057CZPJaS95sua0kTyZnDYSJmtOewmTyWkvebLmtJE8mZw2EiZrTnsJk8lpL3my5rSRPJmcNhIma057CZPJaS95sua0kTyZnDYSJmtOewmTyWkvebLmtJE8mZw2EiZrTnsJk8lpL3my5rSRPJmcNhIma057CZPJaS95sua0kTyZnDYSJmtOewmTyWkvebLmtJE8mZw2EiZrTnsJk8lpL3my5rSRPJmcNhIma057CZPJaS95sua0kTyZnDYSJmtOewmTyWkvebLmtJE8mZw2EiZrTnsJk8lpL3my5rSRPJmcNhIma07rCnPz5s303XfftRtANBolh8PR7t/23HNP6t69u3UHmsM9Z81pYeEvW7aMamtrE46gsLCQhgwZYuER5nbXmZwWlj+055o1axKOYODAgaw1LSxfJqeFhYeuL1++nILBYIdRFBUV0YEHHmjx0eV295mcFpd/Iu3JWtPigmWHkPUFiBHErz15rWkPubLmtIEct2zZQp9//nnbSPbZZx/q1q2bDUaW20NgctpE/nLtyWtNmwiUzVr7CFKuPXmtaR+Zsua0jyyF55Y9tPYRKJPTPrKkuro6CgQCNhpRbg/F9OS894Na+jkYoU83NtPW+tbclhaP3hAE9t85jyb3y6eT9s035HnZeohpybm+JkLnTa+kH6oj1NACUjoomi0U+Lk5hQCij31uB/k9Dpp5RgX1LHaZcvymJee4x7bQV9uaBSm5MQLZQSBKZQUuWnnJTtl5fIZPNSU5X1pdT1e9XZ3h0Ph2RkAbAvccVWJKE9eU5DztpW30/g9N2pDlqxiBDBHoX+GmOeeaL2jDlOTcb+omqqpvZYM2w0nHt6dGAH6M0nwnrbrUfKYtkzO1/PgKGyPA5NQpXNacOgHjy9NGgMmpEzomp07A+PK0EWBy6oSOyakTML48bQSYnDqhY3LqBIwvTxsBJqdO6JicOgHjy9NGgMmpEzomp07A+PK0EWBy6oSOyakTML48bQSYnDqhY3LqBIwvTxsBJqdO6JicOgHjy9NGgMmpE7pU5Ax4HHTpwQGa2NdHuxa5xPEfNJwsq25opQ/XN9FTK0Li/3ZsI3t56L6jS2jngIuCja1058JaemplOOFQTxiYT7eNLybg9vyqMF0zu8Z0sPz9yGI6db8C+qUuQle8WU2Lf+wc2TE5dU6FZOQ8sEce3XFEMQ3olpc09rahJUrPfRamm+d3TLisszumu1xJTnRu7ZZmunRWNX29rUW1r0zOxCJkcuqc3snI+cyJZTR6Dy9FWomWbWiiF1aF6a2vG6iuKUqYtCfsU0BH9fFRoddBIOh9H9bR1I/rdPbA3JfHkzMSJZq+pp6ufEv9mB2Tk8lp2IxORM5jB+TTbeOKqMjnpFlfNtAlM6tU33nW/gV03aGFVOR10tINTXTcs9sM65sZHhRPTvQpmXnL5GRyGjZvE5Hz6pGFdMkwv3jPtE9CdPfixBW2pp9eTkN28dC6yhaxxlryc+esYQwDIcmDlOT8amsL7VbsooI8R0LzlsnJ5DRsXiYi5xXDA3T5IQFyOx30zGdhumGOfsfGcyeX0aheXrE+G/vYlg59lo4JmMk3za2hV9bUi2vkfe//2Egz1jbQr4f4qU+Zm9xOosaWKH2+pYXuXBgUTqibDiui4wfmU4XfKe4NNrTSnG8b6Y/zaoT5jSY/NHkubWlYlP1VkhP9qaqP0qS9fdSawLxNRE75716X+scu/j2nvVgp+i7vw59veTdII3p6aFxvr7Bo0LaGWunVNfV023tBGt7TQ9cdWkT7dHOT1+0QTrtvKlvogU/qxDWyKR1Cd71fS+cO9tPA7nlt+H6xtYUeWx5qk0e84A7bw0tXjSykARVuys+L5ZsKNUXp041N9NCSEL33faPq/OQ1p07aJiInnEFTJ5fSbkUuQYh3v2ukR5fr88pmSs4fayLU3e8UE62+OUpORyxZFBom0PqaFhrb20fRKIk1L34DgePXhUaS8+Z5QfrvsaW0Z6lb1bzNFjnxXdkWbqVdi13UHIlSc2sMC/w75DPji3oCaboHXNTQHPso+fIcwpG3sTZCf3inRsgQTZIz3BwVHxl4loEf/gyy4R78/eGlIfr7++0tpmtGFdIFQ/3i3XgL5IIm74MH/65F6h5tJqdB5MRjrh1dSBcM8QtyoAFcaKbvqyO0YmMzvfR5mFb+gsRg6i1TcuKpm+oidPfiOrEtgUn0tyOKadLe+YSi0iAlHFW3LQjS8o3NhA/K3UeVUN9yt2HbBGoa7fwD/fSH0YWq5m22yImx46Mz55sG4RUH4Y7o46M7JhSLDxiIBe314JI6+tdHMaccrIrzDywgt8tBL64K09Xbt3UkOXENiP3i6nq6fWFQWBrYYrlqRIB6FLrEVtmNc4P0+hcxrav0L0Aj/21RLb39dYP4bUr/fLpmVID2KHF3+BjI2cHkNJCceBSEhbXnHqXuDtspkqzz1jXSnYtqhVCULVNyYuLAA3y/wgMMkxITssTnFKk8kdJTua3xxzGYkH7x5Veayjphabs8kbk5bXKpqnmbTXKu3txMJz2/rc1cRycfPa6UJuzlEybskytC9CfFdlbvUjc9cUKpIAxMcmkqS3KC0NC4v3ujvef59EEFdONhhVTodQpiXjYr9vsrp5bTsN084oMJ34LUxBKso/rGZFNe0P4+Jmeasy9VEIJ87OF7eunofj7h+IGpCzNG2UBMEFS5tsmUnGqb5EqyLPy+kc54ObY2k02asI0Ryio5oZ3VzNtsklMtqEESrbYxSjfMraHX1u5YWwKT+ed1E5aEGjm3hlvp2tk1NOfbmPZTtjfPqqD9dsojOMGOeXYrITm0DMbA9edPV/fewzk4dBePWHZMeLy9n4E1p06SaiVn/GNB1CP7+GjMnl4qy485J5Cc+rJZVcLERMuUnGqOJCU51SarGjmNXHNK7YPxqZm3g3bKU40QytQhlMiRlCraJxk5YZpOfnprO00s5Sw1svxAIkJKRj7BKhG5x1Wax0XkcTlUlxVMzk4ip3wN1ib3TiyhEb08Iljh4aV1dMfCmBPB7uTEGOPN2/d/aLQMORN50TGueNIryalliqlZPUxOLcgprlHTnFhXQDi7l7hp/rrEJox8DOpg3Dq2YzypWcipE5J2lydac8qL4s3bp1eG6ezB/g6xtWbUnMnImUhzwksLr/1fFugP1WRy6pyJauSEZ3DG6RXUr8Kt6nSJfwWiiW5HsLfXQc9+Fqbr3ontiaYi57RJJTS5f74wq9T2OY0ya3VCoouc8ebtT8EIlec7xZpcaXanIiecOncdWUwVBc5268NU92Vi1m4OtYrA90U/tN+XhPxfOrWc9u2e17Z2VPYPDsBzX22/1teCMZNTC0opNCd+vmdiidgAB6Czv26g/3u7WnVtojTtsG92+3tBenJF7NSGJKeaiaPUOFYnJ8YKTTN+L187j7YaOVHQR7mtIUVx85giOu9Av9inVTpvsklOrBsRbHBrnBaUa2l8YJR9nXVmhXAMwZF0/Zyatm2UeCsCp5e+2NJCv5lR1c6Dz+Q0iJwgz9RJJeJECkCFN/aNLxuE6x17m1hrwnV+6n754hq0RXHe09vGFdNZgwvE/cr9OexH3jSmiIbu6hGT2Q7kxJjun1TaroqWkpyY1A8iqKPY1W7vFrj97pAAXXRQQBwgQOsscuJd8PIq90Yhr6tGFAoNvqE2Qle9teNImdIBhvlwzwex/Wc0RCchQAEyhe9BjfRMToPIKQEHwfpWdNzjVL4GoH+8vkm48pV7jkqC4/omRWQLon1W/dJMe5W7RTCBlc1aiQXOvSLsUUYxxXuTlUEdMrpGRj1hwx8THh+6ziInNCC8q9jPjI8qShTpc+vYIjptUEFbhBDug+NWRishUGLBd43Cay/DJyU+TE4DyYlHYf0BB8cxA3zUq9gt6izi+w6gYcZ+s61FrDPxn1qDRvn98EKxeY170RAP+toX9SJ4HI4kNDuQM968VdvquWRYgM7cv0BYHspY4XsW19JFw/wiFrmzyIkPKQI8Lh4WaItdDjVHafmGJvr3R3UJD9DD1IYJ3qfcLaKkIFV8eL+vitALq8Mi7E+tMTkNJqfOx/HljEBCBJicOidHukEIOl/DlzMCwtriKmM6JgKTUwdYfGlGCDA5dcLH5NQJGF+eNgJMTp3QMTl1AsaXp40Ak1MndExOnYDx5WkjwOTUCR2TUydgfHnaCDA5dULH5NQJGF+eNgJMTp3QMTl1AsaXp40Ak1MndExOnYDx5WkjwOTUCV22ySkPIyNbvNF1Q+Qpf+QaenhZSGR9S9RSncvUCVtWLk91AiUrL9XwUIRg/nZoQGT5R0pOZPxDDC2yAeIgBEIP4+No1R7L5NQAtvKSbJJTma0tG0V9JDkxnvj0j/EwMDl1ToztlyPDH4LdcQwMTaYokWlIQbiVG5vpqrcT14+Rb2Zy6pRBtsiJRM83HFpIOwViQs02OSF4pAi5YEbH0xB4P5NT58QgImTve2BKCQ3slieOlj2yrI4eWRoSWhKB+yDthP+RFydrkpXsYHLqx17ckQ1yKs8Eym5pJackEbIJpCoDodSceE8y85bJqX+CnHuAn64/tFAk7IpPu4mn4cTSkyeU0UG7ejTlCWbNqVMGRpIT5zevHVUoMgK4nLHzmrsUucTB3WySE6lBYGbhPYnMWyanzolBRH8eWyTyFiO/baIcwHryBDM5dcpACzmV2uyJFWEatquH9tkplv3gp5oIod4Gkg/LfDbQYG9+3UCvfF5Pdx9VLArPZpOcOJeIA744Y4iPgpp5m4icqVJtYoxSQ6vVUIGGf2BJSOQMOra/es0WmIA3HlZEh/T0kD8vlrl9YzBCj34aEmaibEqH0INLQ7R7sYvG7eVrdw/OwaLMopoDBu+5bnQhje3tpWKfM+U5S2Udlv8sC9Ex/X0ieTgyGeCsLWqzfPJT8qJUMtsFzvamSuLN5MwiOSsKXBRqahUeO5yABxE21bW25apFqQQkIkaafhSz0TLxEzlu9Ji1IM2UZ7a2mVhq5m02yflzbURkKsSkjq/ZgvxL/crd4mByfD2S+FKCkiywAmobW6kk39nhmZjgSAdz4evt19ZI+n37hGKR8FvNcYN8QdPX1ou0I2ofg4YWEgnaUPsEZuyazc10yovts8vHy4rNWp1k03u5Hs0JDYgiOs+tqqcb59aINUfPYrf4yqq1ziQnqpjJcgBq5m22yAlMQJilP6vXbIFJiCwBLynqkfxmiF/k6UHOILWsB8BV7Zk3HFYkMkrgmU+vCNNN82JZDpXpYOIdN/jtT4cX0ajdvdQSab/lpMxOD02MrAjQytDA6EOi6t1S1jLtisftoLlJssCzQ0gvK7dfr5ecMj2/ln2tVORUK0ybbBjxicDUzE2ZxS7evM0mObHmvXTmjkz3GIM09+DJfPOrBqHplE2WLVCaykqyAOeLZla1Iwi8pw8dU0r9K9z0bWWLKImwrqpFOG0uGBqgaDRKDy0NCctF2ZQaTnmf8n3Kj4SWqaTcJku1jcXk1IKoyjV6yalWnyTRq7uCnMqJqDRvs0lOtYktS0BAAyIfDwoyKZtaTl+lWZsocbNyjXfz/BqhkeWzsP4HodUqv0nHDcxWWVNFvg+5nZT5hlNNJRATWhPFpJJV+Y5/Dq85UyEb97tecmp17OA1qciZzBTWu+ZUFudVM29hWspCPEoyaeljModQImdXqoJKyciJ8oaoFoaoqviGZFwo0YcoHbnVJPuHdSXWtWoN16NeJ0xbeV86EUl4/+UHx9J4gpj/WFwnMsBraUxOLSgprrEjOTG8ePMWFZel59js5ET/E3k+1QgVv9+bbArAZ5AuOaG1kacY9VqRVhNV5dQ+IInez+RkcgoE4s3b51aFhcMIms7K5EymOZduaKLjnt2meQZo1ZzAEgmzUVEOGvi7qhah2ePrc6Z6MZMzFUI5YNbKISrNWwRpw0mEdZIecioL0Krtc2bDrEW5vweXhMT+cXzDdskZgwpEFWu5dpTOJTXHVLLpoIWcIOZDU0pp9B5e8SitcbRq72VyMjnbIQBT7MzBBeKLL1sicqo5dpQlCDqLnCDEkp+b6OxXKtsFGyjryyi95reMLSKE2iFzvloZBIwbp4Mm9vVRVX0r3bEoKBxJWsiJ8o7HDcwX8bMf/NhEV75V3aGCudYpx+TUitT268y25tTTfTVHTfz9mOgvnFxOg3aORTShxZNQVnGOrxuC0LWrRwbagvc7k5yIIoqvL3PruGIxjqaW2Lrxng9imlVJWjiEXlhVT3cuCrYFqP9+eIBOHBhbKypJn4qcsvx8kdcp9rIvnZX65Eky+TE59cxujYHvWjyaaq9N9z6tQ9BCTjxrSv98+uv4ImHSqpFTuWeHCaSsG4LtmNWbm0Up9c4iJ7T8tvpWEe2jrC+Df1eL9MGYcAoIoXsIIEDDfU0RVJmOVZpGi18rpiLn48eX0bjeMXM2VYvfg1a7nsmZCsW43+2uOeVwleatmvkKLfnrIX7qXeoSkxkkQFn2/y4L0ZBd8kQAeGeRE31GKUXE1cp4XPRnXWULPf1ZWJiuai3Zoeh56xro3g/q2pmkqcipxwvM5NRJPC2XayGnlufwNYxAKgRYc6ZCKA3NqfORfDkjoIoAk1PnxGDNqRMwvjxtBJicOqFjcuoEjC9PGwEmp07omJw6AePL00aAyakTOianTsD48rQRYHLqhI7JqRMwvjxtBJicOqFjcuoEjC9PGwEmp07omJw6AePL00aAyakTOianTsD48rQRYHLqhI7JqRMwvjxtBJicOqFjcuoEjC9PGwEmp07oxj++hb7c2qLzLr6cEUgPgRG9POIIn9maI4rchSZrz31WT9e+syPRsMm6x92xGQJ3HVFMpw0qMN2oTEnO9TUROvPlbSL/KYkE/twYgewgUJrvpM8u3Sk7D8/wqaYkJ8YEgh799Faqro8wQTMUMt++AwGYibHPfZRK8l308JRSGt7TY0qITEtOSdDnPgvR7G8a6attvAY15QyyWKeK/1fkaacCJx3Zx0vXji4yde9NTU5TI8edYwSyjACTM8sA8+MZgXQRYHKmi5xJ7vvpp5+ooaGB+vTpY5IecTeMQoDJaRSSXfScX375haqrq6l///5d1AN+bbYQYHJmC9lOeu7WrVsJBN1333076Y38ms5CgMnZWUhn6T3Qmt999x0dcMABWXoDP7arEGBydhXyBr23rq6OvvjiCxo6dKhBT+THmAUBJqdZJJFmP+AMWrFiBR188MHkQBFNbrZBgMlpcVFGIhH68MMPBTnz8nbUXrH4sLj7iGQyY+A7S0YfAh999BENHjyYfD6fvhv5alMjwOQ0tXi0dW7ZsmW09957UyAQ0HYDX2UJBJiclhBT8k6uXLmSevXqRaWlpTYYDQ9BIsDktMFc+Pzzz6l79+7UrVs3G4yGh8DktNEc+PLLL6moqIh69Ohho1HxUFhz2mAOfPvtt+TxeKhnz542GA0PgTWnjebADz/8QK2trbTnnnvaaFQ8FNacNpgDP//8M4XDYerbt68NRsNDYM1pozmwefNm2rZtGw0YMMBGo+KhsOa0wRyorKwknOscNGiQDUbDQ2DNaaM5UFNTQ+vWreOTKTaSKYbCmtMGAg2FQrRmzRo66KCDbDAaHgJrThvNgcbGRkII3yGHHEJOp9NGI8vtobDmtIH8sY2C4Hec6cR+Jzd7IMDktIcc6ZNPPhGpSgoKzFdWwCYQd/owmJydDnl2Xrh8+XKRgQ9hfNzsgQCT0+JyxGHr5uZmWrt2LZWXl4sznS0tLeLfXMLmUwAAGopJREFU8P+99trL4iPM3e4zOS0o+6amJuEAAgGx3kzUBg4cKE6rcLMmAkxOa8qNELL39ddfJ+w9NCi8t9ysiwCT07qyI6wzg8Gg6gj22GMPwn/crIsAk9O6sqOqqipCFgS1Nnz4cPJ6vRYeHXedyWnxOYCctcj4rmxYZ2K9yc3aCDA5rS0/gnPo448/JnhtZdt///05n5DF5YruMzltIMT169cTsiGg+f1+jrG1gUyZnDYRIoaBrZXa2lqxr8npSuwhWNac9pCjOGy9evVqGjVqFLlcLpuMKreHkXPkPOrJLbaV+JGlG2h21S62HZ/RA3vkmDLqWWzeD1lOkfOl1fV0y7s1FGyMGi1nfp4FEVh/tblTieYUOS9/s5peW1NvwWnEXTYagYn9vPTwlDKjH2vo83KKnIOnbaKt4VbiQnmGziHLPSzgddCthxfTSfvmm7rvOUXOnndvNLUwuHOdg4Df46A553Qz9Xozp7ZSxHpzQQ0FG3i92TkUMPdbzL7ezClyXjSzit74ssHcM4Z71ykITBngo6m/Mn9FtpwxawdN3USV9bze7JTZb+KXlBU46aZDi0y/3swpzcnrTRMzppO79sFvu5t+vZkz5MR688Z5NVTfzOvNTuaB6V536B4eeubEctP1S61DOWHWnv9aJc35ptESAuFOZg8Bh4PohH3y6d6jSrL3EgOfnBPkhEkLncn7mwbOHAs+yut20FMnlNHwntbI7Wt7csKk/cuCGqriLRQL0sn4LlthC0WO2vbkvPeDWvrnR3UUSZykzvgZwE80JQLj9/LSY8eZO2RPCZztyYlTKJ9vbjHlZOFOdR4CMGnvGG/+kL2cIidvoXQeAcz8pvw8B8071/whezlDTqw3/7ooSNtCbNOamTid1TcrrTdtv895+RvV9NpaPiLWWZPfzO+Z2M9HD08xf8hezmhOPiJmZrp0Xt8KvQ76swWOiMUjYmuHEK83O48AZn6TVY6I5Qw5+YiYmenS+X2z2nrT1mvOC1+voje/4iNinU8D873xmAE+ut8CR8RyRnPyETHzkaQrelRW4KCbDrXW/qbtI4R4vdkVVDDnO61o0trWrMV684Z5NdTAR8TMyZZO7JWVjojlhFl73muVNJePiHUiBcz5KqeD6PfDA3TViEJzdjBFr2y5lcJHxCw5Fw3vtC/PQU8eb50jYrbXnDBp/764ljbW7iiJZ7jU+YGWQcCq601brjn5iJhleJP1jlrtiJjtNeeRT2yhNVtSHxF77uQyGtUreVn2hpaoyBD/1tcNdM/iWqpr0p6DaGQvD913dAntHHDR86vCdM3smqxPxmQvCHgcdOnBAZrY10e7FrnI547lhWhpJapuaKUP1zfRUytC4v92aF430R3jSyyRZS8R3rZbc2rdQtFCTgkaKLl2SzNdNquavt6Wmvi4LxvkPKqvjy48yE/vfddI931Yp5lDB/bIozuOKKYB3fKSpmrBx+i5z8J08/yg5meb9cICj4PmWiCrezL8bEVOcURsYZC2hVMfEZPk/KUuQle8WU2Lf2yvMaBpoGUuOThAfcrcIgfR61/UC4JqaUaT89gB+XT7+GLyuYmmfRKiuxfXaumGuOaZE8to9B5ekQ1i2YYmemFVWFgDsATQzxP2KaCj+vgIAeIgKIg/9WPt5NfckU6+0MrrTdutOS97o4pmrNUWspeKnHIeKUn2UzBCl86souUbmzt5mhGdMDCfbhtfTF6XPnKC1LeNK6Iin5NmfdlAl8ysUu37WfsX0HWHFlKR10lLNzTRcc9u6/QxGvnCo/v56CGLHRGz9ZpTzxExreQEYI8eV0oT9vIJTXPT3Bp6pQvKCKZLzqtHFtIlw/xC7qk07vTTy2nILh5aV9ki1shLfrbm+tOqR8RsTU6t602AoIecfz+ymE7dr4CaIlH690d1wuyTZMGz/rMsRMf099EepW5hOmJ9CgJfdJC/g0NIed8t7wZpRE8Pje3tpWKfU8gm1BSlT35qon9+WNumoROtj9//sZFOe7EyqcK5YniALj8kQG6ng575LEw3zNHvmJLvx3p77GMdK4NLfJQfL2lxlOc76YElIUKakGP751OFPzbOYEMrzfm2kf44r4Z6FLroxsOK6JCeHvLnOSgSJdoYjNCjn4bokaUh3QrV73XQnLOtlZJEbZC2WXNivfmnd2uoVmPVaj3klNcqJ59SkzW0EKHmIzLKe1wOWrO5mbClAydMvLdW3udykFgb71rsEoTGWs/jInE/Ggh+6XYHFDT3yF5eMcHREJaICfzh+kY6f7q6mSqFDWfQ1MmltFuRixpbovTud4306HJ9XtlMyflzbYR2L4l9uDBOeIrdThJjmP11A/Urd1Ofcrf4rTVKYpwYabCxle5cWEtPrQzrJqjV15u2WnNe+HolvfmV9qzuWskJD+kdE4qposBJ31e30DmvVNG6qpY2zQnHEUh7/8cxJwq0AP6tu9+pupUiyYlrMDnf/6GR/vxuUHiBce/dRxbTqN29YpI+vLSO7lgYc/yka9bi3mtHF9IFQ/yEDHRocG5Bc31fHaEVG5vppc/DtPKXxOvoTMiJjxPet/TnJrptQVBYA/hg3H1UCfUtd4txwiLBx/X2hUGB5W+G+EXIHcxTLdZBPHOxzv73r6yR1T3ZV8c2mlPvEbFU5MTEmdI/n87cv0AQE0R6ekWYbpoXMwuVJFObQIm8tcr7Vm9uppOe39Zu/3T07l5BapB74feNdMbLMbM1E3L+f3vXAiRVdaa/2+/uGWamYdCQKO6IRkIgoGssGaw4QhQxjCFrlFQSBVIbNxKtqDEpJa4bDSG7riGpjTzUoAUuVmJWDT5CIgM+IoNPfMKSRGUBNwgzzEzPo2f6nfrveEPPTM/07e470/c/979VqSLOPeee/zvn6/9x/v8cak9mOfmeZHoPPvneIOv292P49z8Oza4qlZy5Amkr51XjylkhUP4r1d1S/W32Q/7v2R/36T9auUzp4Rb1OJ+G2+fyLBFT0uc8FEmh/r6jBZk+he5z/vH/YvoCMhIRDLLQERgPvRXFzU8P9OXykXO4diTEjmUTda2STfpSyWmAc0GdHxTJpMAPmbqGqWz8ndIeiaCPZgW9SiVnrh8vI1BFPwyGH589gfm+OdJkq2DSKmPWkkl0S1NE96nMPvnIST1FExkc6EjikT29uHdQYCIfWfKRc6QtkdEk52B8iKjzTwugoc6P8cH+YA392F375PEto3xEGSkgNFyGlEHOWAo5I+D5vjncPJ9f58d/X8bnVHflzdplj7Wh6T3z/iYBks+szUdyVchpyEn+7s8W1KB+sk8P3GT7u/mIYhdyul3Ad86txA1MS8SUNGuLKRFzAjnPOckHIg5FSne835c3snv59CDumFutB7Sy84G5kJN7iZhy5CST9s6dnfiwK3/KXi6fZrj0PRU0J5Fsy1dr8claDw50pEAWxki5wUaKIG0LZfvR+ci5dmENGqcGByRp5EtfHC2zVhV/Uwmfk6pF6BYxCskX8jhBcxIeqxfU6JFegof2FL/7+45hq2vWNoax8IyA7muveq4Tm97o318cCSsKXG1YFEZd2FN2cl54mh/3L1LD31SCnGeuO4LWIu5C4UZOSh+8c37/futv9vTixq3mEvCJPGsW1ugVKURQisY+9ac+bNnXq+9tkq9Je7lfmRHU36GHItPGFg79f2Pbg9pve7dPr1qhfmi/8taGKpz9CZ++PZMrQ2isAkIBL7BqHu8SMeXM2kJS9jibtaeGPXqO75TxHn3PlbJpmg/mzxAimekmZyLY6bVD9zizMSHyvXQojhVNkQHmbzbB6X1KGkikoWf60D7l2x8mMGWCB5nM8cjrWJu1KpSIKUVO8jdXPt+JNhMlYoMF56Y5afyLZ4Rw05xKnFjp1jVVIRv05H9eNasCdMDy5GoPaJ+V+jC2jN49ltT9TPpfroe05HdmjwMFmagtPWSx/HZfr55qSIEkeozCgLEmJ31bJX+TvVlbSIlYIf6ovMsPgUvOCOCeRl63iOVDmXX6XiElYvmAkL/zRaDKr+GHDG8Ry4c4a3IW62/mA0X+zgsB2vp5WoESMWV8zkJLxHgtNxltIQhMCLnwxvITC2nC4l22mvPqx9uwtYASMRazIYMsCoFF04L4xSX8S8SU0ZyFlogVNevSyPYIqHIkSS6gWWpOOlv1il/zPoDK9que0QBV20IxoGdJzv4SsQ7EzB0hy2iZyVALRYBK3R5UpERMCbN26WNt2F5giVihky7v2x8B1UrElCBnMSVi9l9qMsJCEaASsR1L+Z+yN5zc7MxaMmn/44VOHOkurESs0ImX93kgoKq/SeizI+f1Wzv0820oyVoeZyNw0Wl+bFCoRIy9WVtsiZizl7F60tPBZD+ep8Ype8qYtZKypx7RipFIxRIx1pqzv0Qsgrao2LTFLGjV2qjsb7LzOb/9ZDse32fuFjHVFqLIMxCBL5wRwHrFSsRYa86Za4/o94sMPrFcFq6zEKgOaPi3BrX9TXaaU/xNZ5FwOGlVLRFjqznJ37ztmQi6Td4iJstYXQSm1nqwbelEdQX8SDI2+5xXP96OrX8Wf1P5FWlCwC9NC+K/FCwRY6s5Z6w5gvZe8TdNrF2lX1H1SJJck8ZCc0qJmNJ8K1g41bdQDEBYkJP8zZubOhCXErGCF7JqDegKw02KloixNGulREw1ihUnj8cN3HmhWqe6j4QEC80pJWLFLWbVWqleIsZOc0qJmGoUK00ep/ibLJIQpESstMWsUmvVS8TYaU4pEVOJXsXLQlUoK+eqn7KXjZDtfU7yN2sCkk1rZllPq+zB3u4KM6+ye6ejL4Pmb56Ak6vd7MZe7IBtTc5DkRQ+6EwVK5vj2sXea4Z/Sr2yctNVhk56bE1OJ02EFbI+++yzaGhosKIr6cMGCAg5bTAJVg1ByGkVkvboR8hpj3mwZBRCTktgtE0nQk7bTEXpAxFylo6hnXoQctppNkoci5CzRABt1lzIabMJKWU4Qs5S0LNfWyGn/eak6BEJOYuGzpYNhZy2nJbiBiXkLA43u7YSctp1ZooYl5CzCNBs3ETIaePJKXRoQs5CEbP3+0JOe8/PsKM7cODAkL+1t7cjHA4P+e+nnHIKUymdPWwhJ9P5TyaTaG5uRjo9/FWILpcL9fX18Hg8TKV09rCFnIznf//+/cilQQ2RSGPW1dUxltDZQxdyMp7/RCKBXbt25dSepDVnz54Nr9fLWEJnD13IyXz+h9OeojWZTyzHm635Q26tBOR7kvZMpY7Xvbrdbl1riq9pLdZj3ZtozrFGfBS+N1h7itYcBZDL0KWQswygW/3J7MitRGitRrd8/Qk5y4e9pV82tKdoTUthLWtnQs6ywm/dxw3fU3xN6zAtd09CzhwzQAeL0UOHi714KIZUGvhzWxIH2pM43JNGe3T4jf9yTuhlH2/FI3+tLecQcn67KqDB7dIwqdKFU2o8CHo0nDfZj5M+OknPaQd3mZ0gIScA45S/7e/34Z5XekA3JxMh3RqQzmQQTWQosK1jevxfZiGW9wgzerIPOPV7AK9Lg8+toa03jfEhF+ZM9uGCfwjg8ulBAc3pWylEyl++1o37d0fh8wDxZAYZaAMWkaySsUHA+NGr9GlwuYA5k/1YdmYFnKxVHak5f9bchY1vRNEdzyCWJBNVDq0eGwqa+4pB1OqPzOGls0K4oX6cucYKveUochIpVzd3I+TV0JMgHSmP3REgolb7+33WZWc6i6SOICeZr5c+1IreREbXlkJKu1Ny6PiIpGTyBr0a1i4MO8LcVZ6cq57rxMY3o4jGjbAEv4UpIx6IAF1qtGRmCCvOr1IaGmXJSdqycXMruuNpxOS6eqUWMf3MVniBoNeFJ75Wq+zlRkqSc9ehOK749TGlFqQIkwuBDMb5XfjmP1YoGTBSjpwU9Fn3So/uX8qjPgI0yxTgu+az6hFUKXJe91QHtv6lD7GkEFN9Wh6XkGY74NHwz2eFcPPn1PFDlSHndU+1Y/t7MXRJ4MdJvPy7rETQKp+Gq2apQ1AlyPnTnZ14YHcUkZhoTEcy8yOhjT3Rb5wVwnfn8Neg7MlJwZ8lj7aJj+lkVmbJrpIPypqcEpUVRuaO4QJVfg0bFo1nnazAmpwz1x5Bm03Lt4Q25UeAKl3eXH5i+QdS5AjYkvOLm1vx9tEEEsfPtSoSAmmmKgJUljZvSgD3NA49BZ+DzCzJKX4mh6VV/jGS/1kbdGHdpTxzcVmSU8zZ8i98TiPgat6yIydlAN37Wg+6ZduEEz/KOlY62eJqhil+7Mh58l2H5aiQsi51fh8n87Ym4MI71/IKDrEiJ2nNtS93o0+qTPgxpMwjpuDQpVODWH1xTZlHYv7zrMg5Y80RtPempVja/PzKm1nZQ+GgC29/m4/2ZEPO37zTizuei6CjV1L0hHHFIVDh1fCjedVsTvdjQ86LN7Vgz1GxZ4tbltLKQODTJ3jw+6smsgCEDTkpECSPIFAKAsapfg8vnsAirY8FOcmkXbE9gj4poC5lbUpbqvv0aljOpDCbBTkXbGrBO2LSCrksQmD6CR5sZWDasiCnmLQWrUrpRt8jp8Oq91z7MdujYXtykkn7o2cjaO9TL0q7Y9lEnD7BU9Ai+dXbUXzvD5GC2hT68n/Or8ZXZoT0M35vbYrgkb29hXZh6/fDAQ33fNH+5WQsyHlLU0TJc4GEnOXhMB0I9i0GfqftyXnNE+148k995ZnFUf6qQc6/HEti7gMto/w1892rrjkJiYVnBLDO5qVktifn/I0t2Nui5v6mkNP8D4bVb06b6MEflth7v9P25PzMmiP6/Y0q3m8i5LSacub6o+jF+KALb9k8lc/25FQ5UlsqOQ3zk8zi25/pxI1zxuFTtR79sp9UBjgWTWPLvl6s3tmlB3eyH7oUiN5fNDWI2gqX/qeeeAYvfRDX85e//OmgsgEhIxnh0E2TzLG5TG8JOcsEPH3WKnK2RtPwuPrLovqSGZ2YdMgy3cxN/35sby9u2Nrxd0kpQkzVGTMneXWLJJ7KIJE+3ob6oPaqRmsNIIScJSx+uozowo0t+i+6io9V5CRsiEgbX+/B3S916/++6LQAfnhBlX7JD5H3xq0deGZ/TIdx9YIaXDYtqO/5bXu3D7ft6MThrhTOmuTFHfOq8ZmP9ZNWZXJW+DRsWzLR1pcg2VpzOoWcZn94Bkd1DbM2nQE2vxXFim0D9z+/f944fcuASPiLF7vx813dOgHXNIZxUpUbr/x/HFc90jbA5CWtumFRGHVhj5DT7MSM0ntCzlEC1ky3he5zDkfOrlgGK5oi+O3/DkwWIO248vPV8LuBtS/34K6dXbjmnErcWF+pm7zGfxs81rvmV+OKGSHdYlExCYHkFc1pZoWO8I5TNGex+5yG5vywO4Xrf9eBnQfjA9DMRc6V86px5awQoonhiXfTnHFYfk4FYikIOUtcw6U0t7XmJMEkWjv89BZDTjMJBotnhHD73CpkMuqSk1CVgFApPx1CzhHRK4acZjTn9bMrcd25lYgrrDmFnCUSk5pLEoK1mjPb51z/Sg/ufKFryAfMENiCqS1bF5KEYBH0kr5nLTmzo7VvfZjA4oePDYnWrm8M45O1akdrJX3PAoJK4ru15KTeSDN+fVYILg14+YM4Vj3Xid2HE/o2y60NVTj7Ez7l9zkl8d0CctJZtetf7kZUwdz3QrdSCM7syG4xPif1Qal7dy8Mo6HOr2+pJNPQM4soK4gyjejfPrc2YkTXgqktWxd0hu1PPl9j+1P4bB+tpUuLrt7Shg4pttYXsxXkNFix/JxKXDkzhElVbp2kvYkMXv1rHHuPJkG3Q6u6lULnCO1Yau/sIJoj25OT9jovfrAFnQqSs2yqQz5s+20UFuSkQcoBX8ImKxG44FQ/Nv3TeCu7HJW+bK85SWr9aMymDrkjZVSWgLM6DXiAVQz8TTaaU/U0PmfRo7zScsipNRBioTlpsHIdQ3kXtSpfb6jz4cHLJrAQhw05ybT91+0R9Mip7ywWlh0HKRcZjdKskGlbf9/RUepdulUdAS5Hk2TPAxvNaQSGbmnqQEzBhATVyVFu+SjxYPlnK/Vzk7g8rMhJ2nPBg62I9KW54CvjtAECHLUmm2ht9vyS73nbjsiQ0+RssAZkCDZFgLZPKBvqhno+WpMlOUl7LtzciraoaE+bcsF2wxofcuHN5Xyum2e3lZI945Rvu+TRNj0XVB5BYCQE6PDo9ZeGWVyWO1gOVj5n9uD/5Yl2PP1uH5IpWZyCQG4EfG5g+glebPlaLUuI2JJTzFuW621MB83VnGVt1hqDJ4JetKkFdDSkinepjOlKVuhjRnT24cUTWJqzSpCThKDo7Q+2R/TCYCGoQgwrQRTOfma22GzN2mwh7nqhE+tfjSp5wW4Ja9SRTav8GpadGcJN51Wxl18JctIs/OT5TvxydxTxpERw2a/KIgUY59Mwd4ofd38hXGQP9mqmDDkNgm7YHdXPwBET114LbTRHQz/HNX4NDaeqQ0zCSylykkB0F+X6V3vEBx1NNtiobyJmyKvhW2dXsMqbNQOhcuQkoenEvvte60FXjLKIRIeaWQic36G7Ri+fHuQsQs6xK0lOkpS2WRo3t6I3kUY0ody8OVog0pYVXiDodWFdI8/sHzMTqCw5DYJueqMHm96MIhoXLWpmQXB5h+4d/cH5/COyI+GtNDkNwXUt+lAr+uIZOUmBC/sGjZO0ZaVXQ8CnYd1CdbVlttiOIKehRf9nTxQPvB5FMp3Rs4rksT8CNEu0d+lx9e9fciv7KgVhx5AzW4u+eCiOlc936jc3x+guAgkalbKGLG/bn36Xgd/j0m+gXjrLWaQ0AHUcObNJ+kFnCve/3o3mg3Gk05ACbstpZr5Dg5CVPpc+D6QlZ5zoUzIKaxYVx5IzGyDySUmb7tjfh30tCRzuSSOVBtwAEpkM4llnFhlJ1WYBlvf6ERiIWwZBjwaXpsHn0dDem0Y45MLl0wKYWutsQjrS5yyEJERWeoiw9LxwMIZoIo2DHSkc7k7ri0mewhAIB12YVOnC5Bo3Th/vgdet4dyT/Xons0/2FdaZQ97+G5PxqjCmHPV1AAAAAElFTkSuQmCC&quot;&gt;&lt;/div&gt;&lt;div id=&quot;SDCloudData&quot; style=&quot;display:none&quot;&gt;&lt;/div&gt;" style="text;whiteSpace=wrap;html=1;" vertex="1" parent="1">
          <mxGeometry x="240" y="-1080" width="300" height="260" as="geometry" />
        </mxCell>
      </root>
    </mxGraphModel>
  </diagram>
</mxfile>
